REM DIRINDEX 1\2,1\3,1\4,1\5,1\6
REM DIRNAME folder01,folder02,folder03,folder04,folder05,folder06
TITLE ""
FILE "DISC1Track04.mp3" MP3
  TRACK 01 AUDIO
    TITLE "0:"
    INDEX 01 00:00:00
  TRACK 02 AUDIO
    TITLE "2:cjc129_0070"
    INDEX 01 00:03:14
  TRACK 03 AUDIO
    TITLE "0:"
    INDEX 01 00:08:13
  TRACK 04 AUDIO
    TITLE "3:cjc129_0071"
    INDEX 01 00:09:26
  TRACK 05 AUDIO
    TITLE "0:"
    INDEX 01 00:11:09
  TRACK 06 AUDIO
    TITLE "5:cjc129_0072"
    INDEX 01 00:11:42
  TRACK 07 AUDIO
    TITLE "0:"
    INDEX 01 00:13:39
  TRACK 08 AUDIO
    TITLE "4:cjc129_0073"
    INDEX 01 00:14:31
  TRACK 09 AUDIO
    TITLE "0:"
    INDEX 01 00:16:18
  TRACK 10 AUDIO
    TITLE "6:cjc129_0074"
    INDEX 01 00:16:46
  TRACK 11 AUDIO
    TITLE "0:"
    INDEX 01 00:23:03
  TRACK 12 AUDIO
    TITLE "3:cjc129_0075"
    INDEX 01 00:24:55
  TRACK 13 AUDIO
    TITLE "0:"
    INDEX 01 00:26:24
  TRACK 14 AUDIO
    TITLE "5:cjc129_0076"
    INDEX 01 00:26:54
  TRACK 15 AUDIO
    TITLE "0:"
    INDEX 01 00:28:70
  TRACK 16 AUDIO
    TITLE "4:cjc129_0077"
    INDEX 01 00:29:62
  TRACK 17 AUDIO
    TITLE "0:"
    INDEX 01 00:31:27
  TRACK 18 AUDIO
    TITLE "6:cjc129_0078"
    INDEX 01 00:31:61
  TRACK 19 AUDIO
    TITLE "0:"
    INDEX 01 00:37:07
  TRACK 20 AUDIO
    TITLE "3:cjc129_0079"
    INDEX 01 00:38:55
  TRACK 21 AUDIO
    TITLE "0:"
    INDEX 01 00:40:15
  TRACK 22 AUDIO
    TITLE "5:cjc129_0080"
    INDEX 01 00:40:46
  TRACK 23 AUDIO
    TITLE "0:"
    INDEX 01 00:44:69
  TRACK 24 AUDIO
    TITLE "4:cjc129_0081"
    INDEX 01 00:45:63
  TRACK 25 AUDIO
    TITLE "0:"
    INDEX 01 00:47:21
  TRACK 26 AUDIO
    TITLE "6:cjc129_0082"
    INDEX 01 00:47:54
  TRACK 27 AUDIO
    TITLE "0:"
    INDEX 01 00:51:30
  TRACK 28 AUDIO
    TITLE "3:cjc129_0083"
    INDEX 01 00:53:08
  TRACK 29 AUDIO
    TITLE "0:"
    INDEX 01 00:55:06
  TRACK 30 AUDIO
    TITLE "5:cjc129_0084"
    INDEX 01 00:55:44
  TRACK 31 AUDIO
    TITLE "0:"
    INDEX 01 00:57:60
  TRACK 32 AUDIO
    TITLE "4:cjc129_0085"
    INDEX 01 00:58:50
  TRACK 33 AUDIO
    TITLE "0:"
    INDEX 01 01:00:51
  TRACK 34 AUDIO
    TITLE "6:cjc129_0086"
    INDEX 01 01:01:11
  TRACK 35 AUDIO
    TITLE "0:"
    INDEX 01 01:05:13
  TRACK 36 AUDIO
    TITLE "3:cjc129_0087"
    INDEX 01 01:06:63
  TRACK 37 AUDIO
    TITLE "0:"
    INDEX 01 01:08:36
  TRACK 38 AUDIO
    TITLE "5:cjc129_0088"
    INDEX 01 01:08:70
  TRACK 39 AUDIO
    TITLE "0:"
    INDEX 01 01:11:09
  TRACK 40 AUDIO
    TITLE "4:cjc129_0089"
    INDEX 01 01:12:03
  TRACK 41 AUDIO
    TITLE "0:"
    INDEX 01 01:13:51
  TRACK 42 AUDIO
    TITLE "6:cjc129_0090"
    INDEX 01 01:14:08
  TRACK 43 AUDIO
    TITLE "0:"
    INDEX 01 01:19:28
  TRACK 44 AUDIO
    TITLE "3:cjc129_0091"
    INDEX 01 01:21:04
  TRACK 45 AUDIO
    TITLE "0:"
    INDEX 01 01:22:46
  TRACK 46 AUDIO
    TITLE "5:cjc129_0092"
    INDEX 01 01:23:01
  TRACK 47 AUDIO
    TITLE "0:"
    INDEX 01 01:29:21
  TRACK 48 AUDIO
    TITLE "4:cjc129_0093"
    INDEX 01 01:30:15
  TRACK 49 AUDIO
    TITLE "0:"
    INDEX 01 01:31:55
  TRACK 50 AUDIO
    TITLE "6:cjc129_0094"
    INDEX 01 01:32:10
  TRACK 51 AUDIO
    TITLE "0:"
    INDEX 01 01:36:25
  TRACK 52 AUDIO
    TITLE "3:cjc129_0095"
    INDEX 01 01:38:04
  TRACK 53 AUDIO
    TITLE "0:"
    INDEX 01 01:39:61
  TRACK 54 AUDIO
    TITLE "5:cjc129_0096"
    INDEX 01 01:40:21
  TRACK 55 AUDIO
    TITLE "0:"
    INDEX 01 01:43:03
  TRACK 56 AUDIO
    TITLE "4:cjc129_0097"
    INDEX 01 01:43:70
  TRACK 57 AUDIO
    TITLE "0:"
    INDEX 01 01:45:51
  TRACK 58 AUDIO
    TITLE "6:cjc129_0098"
    INDEX 01 01:46:14
  TRACK 59 AUDIO
    TITLE "0:"
    INDEX 01 01:51:42
